<?xml version="1.0" encoding="utf-8"?><svg version="1.1" id="Layer_1" xmlns="http://www.w3.org/2000/svg" xmlns:xlink="http://www.w3.org/1999/xlink" x="0px" y="0px" viewBox="0 0 122.88 85.12" style="enable-background:new 0 0 122.88 85.12" xml:space="preserve"><style type="text/css">.st0{fill-rule:evenodd;clip-rule:evenodd;}</style><g><path fill="#fff" class="st0" d="M29.11,43.35L29,50.04h12.08c2.56,0,4.65,2.09,4.65,4.65v4.65h-0.05v18.18c0,2.56-2.09,4.65-4.65,4.65h-4.65 V61.02c0-1.92,0.36-1.68-1.49-1.68H22.93v-0.03h-5.96c-3.84,0-6.99-3.15-6.99-6.99v-22.9c0-3.91,3.2-7.11,7.11-7.11h3.52 c5.58,0,6.13,2.67,7.55,5.46l5.94,2.34c4.3,1.94,3.2,2.32,6.12-1.3l3.8-4.7c1.86-2.97,9.21,0.13,6.06,5.12l-5.51,7.52 c-2.29,3.13-5.34,3.57-9.03,2.04l-6.42-2.26V43.35L29.11,43.35z M119.06,77.82c-0.04-0.29-0.16-0.56-0.38-0.78 c-1.61-1.62-3.64-2.94-5.96-3.85c-1.62-0.63-3.39-1.06-5.24-1.25l0.35-5.54h12.61c1.31,0,2.39-1.08,2.39-2.39 c0-9.9-2.33-17.34,0-28.61c0.69-3.34-6.2-3.82-6.2,0.18v25.37H92.78c-1.31,0-2.39,1.76-2.39,3.07v1.86c0,0.29,0.24,0.53,0.53,0.53 h12.65l0.49,5.48c-1.96,0.13-3.83,0.53-5.56,1.16c-2.22,0.81-4.19,2-5.79,3.46c-0.38,0.35-0.52,0.87-0.4,1.34 c-0.62,0.46-1.02,0.92-1.02,2.04s1.14,2.54,2.54,2.54s2.54-1.42,2.54-2.54s-0.41-1.59-1.04-2.05c1.19-0.92,2.57-1.69,4.09-2.24 c1.63-0.6,3.43-0.96,5.33-1.02l0.28,2.75l0.01,0.12c-1.07,0.3-1.86,1.16-1.86,2.45s1.14,2.54,2.54,2.54s2.54-1.26,2.54-2.54 c0-1.28-0.78-2.14-1.84-2.44l0.01-0.13l0.2-2.72c1.81,0.12,3.53,0.51,5.09,1.12h0.01c1.52,0.59,2.89,1.39,4.06,2.36 c-0.47,0.46-0.76,0.76-0.76,1.81s1.14,2.54,2.54,2.54c1.4,0,2.54-1.42,2.54-2.54C120.12,78.75,119.7,78.28,119.06,77.82 L119.06,77.82z M98.71,0.34c-5.37,0-9.73,4.36-9.73,9.73c0,5.37,4.36,9.73,9.73,9.73c5.37,0,9.73-4.36,9.73-9.73 C108.43,4.7,104.08,0.34,98.71,0.34L98.71,0.34z M94.66,38.5l0.19,11.54H82.77c-2.56,0-4.65,2.09-4.65,4.65v4.65h0.05v18.18 c0,2.56,2.09,4.65,4.65,4.65h4.65v-21.5c0-2.04,0.77-1.33,3.07-1.33h10.38v-0.03h5.96c3.85,0,6.99-3.15,6.99-6.99V28.06 c0-3.91-3.2-7.11-7.11-7.11h-3.52c-7.32,0-6.16,5.04-9.4,8.21c-3.2,3.13-2.4,3.49-6.77,3.49h-9.42c-5.62,0-7,7.35,1.01,7.35h8.64 C91.15,40,91.48,40.61,94.66,38.5L94.66,38.5z M85.42,41.5c-15.16,0-26.91,0-42.07,0c-0.23,0-0.41,0.19-0.41,0.41v5.92 c0,0.23,0.19,0.41,0.41,0.41c7.92,0,9.73,0,17.66,0v36.31c0,0.3,0.25,0.55,0.55,0.55h0.21h0.01h5.82h0.01h0.21 c0.3,0,0.55-0.25,0.55-0.55V48.25c5.23,0,11.82,0,17.05,0c0.22,0,0.41-0.19,0.41-0.41v-5.92C85.83,41.68,85.64,41.5,85.42,41.5 L85.42,41.5z M1.29,36.78h3.39c0.69,0,1.15,0.58,1.26,1.26c1.28,8.08,1.98,16.16,1.94,24.23h23.2c0.92,0,1.66,0.75,1.66,1.66v3.36 h-1.33V84.5c0,0.28-0.23,0.51-0.51,0.51h-4.45c-0.28,0-0.51-0.23-0.51-0.51v-7.48H6.97c-0.28,2.28-0.62,4.56-1.03,6.84 c-0.12,0.68-0.57,1.26-1.26,1.26H1.29c-0.69,0-1.45-0.59-1.26-1.26c4.47-15.56,3.54-30.77,0-45.81 C-0.13,37.37,0.6,36.78,1.29,36.78L1.29,36.78z M25.95,74.7v-7.4H7.81c-0.1,3.15-0.32,4.25-0.66,7.4H25.95L25.95,74.7z M20.39,0 c5.37,0,9.73,4.36,9.73,9.73s-4.36,9.73-9.73,9.73s-9.73-4.36-9.73-9.73S15.01,0,20.39,0L20.39,0z"/></g></svg>